<?xml version="1.0" encoding="utf-8"?>
<!-- Generator: Adobe Illustrator 22.1.0, SVG Export Plug-In . SVG Version: 6.00 Build 0)  -->
<svg version="1.1" id="Layer_1" xmlns="http://www.w3.org/2000/svg" xmlns:xlink="http://www.w3.org/1999/xlink" x="0px" y="0px"
	 viewBox="0 0 63 25" style="enable-background:new 0 0 63 25;" xml:space="preserve">
<desc>Created with Sketch.</desc>
<g>
	<path d="M16,3c1.6,0.1,2.5,0.8,2.9,1.4c0,0,0,0,0,0c-0.4,0-0.8,0.1-1.2,0.2l0,0c-0.1,0-0.1,0-0.2,0.1c-0.7,0.3-1.2,0.8-1.5,1.4
		c-0.3,0.6-0.2,1.3,0.1,2c0.3,0.8,0.9,1.3,1.6,1.6c0.4,0.1,0.7,0.2,1.1,0.2c0.4,0,0.9-0.1,1.4-0.3c2.1-0.8,2.8-2.5,2-4.6
		c-0.8-2-3.8-3.3-6.1-3.2c-0.2,0-0.4,0.2-0.4,0.4v0.4C15.6,2.8,15.8,3,16,3z"/>
	<path d="M16.2,10.9c-3.1-1.5-4.6-3.2-4.6-5.4c0-0.4,0.1-0.7,0.2-1l0-0.1c0,0,0-0.1,0-0.1c0.2-0.4,0.5-0.7,0.8-1
		C12.9,3.2,13.2,3,13.4,3c0.2,0,0.4-0.2,0.4-0.4V2.2c0-0.1,0-0.2-0.1-0.3c-0.1-0.1-0.2-0.1-0.3-0.1c-1,0.1-1.9,0.2-2.5,0.3
		c-0.4,0.1-0.7,0.2-0.9,0.2l0-0.9c0-0.1-0.1-0.3-0.2-0.3L9.7,1.2c-0.1,0-0.2-0.1-0.3,0L2.2,3.7C2.1,3.7,2,3.9,2,4v0.3
		C2,4.5,2,4.6,2.2,4.7c0.4,0.2,0.9,0.5,1.3,0.8c0,0,0,0,0,0C4.1,6,4.8,6.9,4.8,8.4v10.1c0,3.4-0.4,3.9-3.1,4.2
		c-0.2,0-0.3,0.2-0.3,0.4v0.4c0,0.2,0.2,0.4,0.4,0.4h11.7c0.2,0,0.4-0.2,0.4-0.4l0-0.4c0-0.2-0.1-0.4-0.3-0.4
		c-2.4-0.3-2.9-0.8-3.1-2.8c0-0.4,0-0.8,0-1.4v-4.8c0.9,0.6,1.8,1,2.7,1.4l0.1,0.1c0,0,0,0,0,0l0.2,0.1c0.9,0.4,1.9,0.9,2.6,1.2
		c0,0,0,0,0,0c1.3,0.7,2.2,1.5,2.2,2.9c0,1.6-0.8,2.8-2.2,3.3c-0.2,0.1-0.3,0.2-0.3,0.4v0.5c0,0.1,0.1,0.2,0.1,0.3
		c0.1,0.1,0.2,0.1,0.3,0.1c1.7-0.3,3.2-1,4.3-2c1.2-1.2,1.9-2.8,1.9-4.6c0-0.8-0.2-1.5-0.5-2.2C20.8,13.2,18.6,12,16.2,10.9z"/>
</g>
</svg>
